<svg xmlns="http://www.w3.org/2000/svg" xmlns:xlink="http://www.w3.org/1999/xlink" viewBox="0,0,256,256" width="48px" height="48px" fill-rule="nonzero"><g fill="none" fill-rule="nonzero" stroke="none" stroke-width="1" stroke-linecap="butt" stroke-linejoin="miter" stroke-miterlimit="10" stroke-dasharray="" stroke-dashoffset="0" font-family="none" font-weight="none" font-size="none" text-anchor="none" style="mix-blend-mode: normal"><g transform="scale(5.33333,5.33333)"><path d="M13,16h11h11l8,20v2c0,0 -4.813,4 -8,4c-3.438,2 -11,2.017 -11,2.017c0,0 -7.938,-0.267 -11,-2.017c-1.438,0 -8,-2.563 -8,-4c0,-1.437 0,-2 0,-2z" fill="#171b1e"></path><path d="M44,37c0,-2.825 -2.049,-7.746 -4.029,-12.504c-0.453,-1.089 -0.907,-2.182 -1.323,-3.222c-0.02,-0.067 -0.039,-0.128 -0.06,-0.2c-0.003,-0.01 -0.006,-0.022 -0.009,-0.032c-0.04,-0.135 -0.082,-0.28 -0.126,-0.43c-0.014,-0.047 -0.028,-0.096 -0.042,-0.145c-0.039,-0.135 -0.079,-0.275 -0.119,-0.418c-0.011,-0.039 -0.022,-0.077 -0.033,-0.117c-0.051,-0.181 -0.102,-0.368 -0.154,-0.56c-0.011,-0.042 -0.023,-0.085 -0.034,-0.127c-0.042,-0.155 -0.084,-0.313 -0.126,-0.473c-0.015,-0.057 -0.03,-0.113 -0.044,-0.17c-0.053,-0.203 -0.105,-0.408 -0.156,-0.615c-0.003,-0.013 -0.006,-0.026 -0.009,-0.039c-0.048,-0.193 -0.094,-0.387 -0.14,-0.581c-0.014,-0.06 -0.028,-0.119 -0.041,-0.179c-0.263,-1.138 -0.479,-2.275 -0.555,-3.188c-0.009,-0.107 -0.039,-0.177 -0.062,-0.262c-0.036,-0.345 -0.089,-0.646 -0.156,-0.906c-1.014,-5.021 -5.474,-8.832 -10.782,-8.832h-4c-5.308,0 -9.768,3.811 -10.782,8.832c-0.068,0.261 -0.12,0.561 -0.156,0.906c-0.023,0.085 -0.053,0.155 -0.062,0.262c-0.076,0.913 -0.292,2.05 -0.554,3.189c-0.014,0.06 -0.027,0.119 -0.041,0.179c-0.046,0.194 -0.092,0.388 -0.14,0.581c-0.003,0.013 -0.006,0.026 -0.009,0.039c-0.051,0.207 -0.104,0.413 -0.156,0.615c-0.015,0.057 -0.03,0.113 -0.044,0.17c-0.042,0.16 -0.084,0.318 -0.126,0.473c-0.011,0.042 -0.023,0.085 -0.034,0.127c-0.052,0.192 -0.104,0.379 -0.154,0.56c-0.011,0.04 -0.022,0.078 -0.033,0.117c-0.041,0.144 -0.08,0.284 -0.119,0.418c-0.014,0.049 -0.028,0.097 -0.042,0.145c-0.043,0.15 -0.086,0.294 -0.126,0.43c-0.003,0.01 -0.006,0.022 -0.009,0.032c-0.044,0.149 -0.085,0.286 -0.124,0.414c-0.01,0.032 -0.019,0.063 -0.028,0.093c-0.031,0.102 -0.06,0.197 -0.086,0.282c-0.005,0.016 -0.01,0.033 -0.015,0.048c-0.03,0.096 -0.056,0.179 -0.078,0.25c-0.006,0.021 -0.011,0.036 -0.017,0.054c-0.016,0.052 -0.032,0.1 -0.042,0.131c-0.002,0.006 -0.005,0.014 -0.006,0.02c-0.01,0.026 -0.017,0.05 -0.017,0.05l2.219,-0.385c0.21,-0.639 0.451,-1.182 0.691,-1.675c1.466,-3.023 3.434,-3.272 4.448,-3.356h0.642c2.417,0 5,1 5,1h4c0,0 2.667,-1 5,-1h0.642c1.014,0.084 2.858,0.25 4.448,3.356c0.104,0.202 0.202,0.423 0.299,0.648c0.06,0.155 0.127,0.32 0.189,0.479c0.068,0.18 0.138,0.353 0.203,0.549l0.016,0.003c0.408,1.019 0.856,2.099 1.327,3.231c1.816,4.363 3.876,9.31 3.879,11.679c-0.005,0.033 -0.717,4.041 -10.169,5.518c-2.108,0.114 -4.956,0.045 -7.834,-0.464c-2.91,-0.514 -5.781,-2.536 -8,-5c0,0 -1,3.063 -3,5c0,2.209 4.925,3 11,3c5.853,0 10.625,-0.7 10.967,-2.764c4.615,-0.783 6.887,-2.043 7.993,-3.168c1.006,-1.022 1.043,-1.916 1.04,-2.068z" fill="#455a64"></path><path d="M29,19c-3.625,0 -5,3 -5,3l1,3c1.031,1.031 5,1 5,1c0,0 4,0.125 4,-2c0,-2.125 -1.375,-5 -5,-5zM19,18.999c-3.625,0 -5,2.875 -5,5c0,2.125 4,2 4,2c0,0 3.969,0.031 5,-1l1,-3c0,-0.001 -1.375,-3 -5,-3zM29.978,27.999h-0.016c-1.126,0 -2.324,-0.089 -3.482,-0.34c0.902,1.35 2.019,3.03 3.147,4.728c0.297,0.447 0.593,0.894 0.886,1.335c0.589,-1.479 1.575,-3.981 2.349,-6.094c-0.788,0.238 -1.702,0.372 -2.738,0.372c-0.065,0 -0.114,-0.001 -0.146,-0.001zM20,33.552v1.448h1v-2.953c-0.317,0.477 -0.637,0.959 -0.961,1.446zM28,35h0.961c-0.324,-0.488 -0.644,-0.971 -0.961,-1.448zM29,35.059v-0.059h-0.039c0.013,0.02 0.026,0.039 0.039,0.059zM22,35h1v-4h-1zM26,31v4h1v-2.954c-0.24,-0.361 -0.467,-0.703 -0.696,-1.046zM24,35h1v-4h-1z" fill="#546e7a"></path><path d="M19,18.999c-0.507,0 -0.965,0.061 -1.387,0.164c3.448,0.756 5.258,3.989 5.387,4.839c0.159,-0.125 0.302,-0.236 0.449,-0.351l0.551,-1.652c0,-0.001 -1.375,-3 -5,-3zM29,19c-0.307,0 -0.591,0.028 -0.866,0.067c2.86,1.276 3.691,5.761 3.838,6.735c1.009,-0.231 2.028,-0.73 2.028,-1.802c0,-2.125 -1.375,-5 -5,-5z" fill="#455a64"></path><path d="M26,29h-4v-9.188l0.636,0.489c1.011,0.496 1.699,0.534 2.702,0.022l0.662,-0.51z" fill="#78909c"></path><path d="M38.984,22.366c-0.002,-0.005 -0.004,-0.013 -0.006,-0.02c-0.01,-0.031 -0.025,-0.08 -0.042,-0.131c-0.006,-0.018 -0.011,-0.034 -0.017,-0.054c-0.022,-0.07 -0.048,-0.154 -0.078,-0.25c-0.005,-0.015 -0.01,-0.033 -0.015,-0.048c-0.026,-0.085 -0.055,-0.181 -0.086,-0.282c-0.009,-0.031 -0.019,-0.061 -0.028,-0.093c-0.039,-0.128 -0.08,-0.265 -0.124,-0.414c-0.003,-0.01 -0.006,-0.022 -0.009,-0.032c-0.04,-0.135 -0.082,-0.28 -0.126,-0.43c-0.014,-0.047 -0.028,-0.096 -0.042,-0.145c-0.039,-0.135 -0.079,-0.275 -0.119,-0.418c-0.011,-0.039 -0.022,-0.077 -0.033,-0.117c-0.051,-0.181 -0.102,-0.368 -0.154,-0.56c-0.011,-0.042 -0.023,-0.085 -0.034,-0.127c-0.042,-0.155 -0.084,-0.313 -0.126,-0.473c-0.015,-0.057 -0.03,-0.113 -0.044,-0.17c-0.053,-0.203 -0.105,-0.408 -0.156,-0.615c-0.003,-0.013 -0.006,-0.026 -0.009,-0.039c-0.048,-0.193 -0.094,-0.387 -0.14,-0.581c-0.014,-0.06 -0.028,-0.119 -0.041,-0.179c-0.263,-1.138 -0.479,-2.275 -0.555,-3.188c-0.009,-0.107 -0.039,-0.177 -0.062,-0.262c-0.036,-0.345 -0.089,-0.646 -0.156,-0.906c-1.014,-5.021 -5.474,-8.832 -10.782,-8.832c3.463,1.079 6.733,3.241 7.707,6.189c0.296,0.897 -0.436,1.811 -1.38,1.805c-3.489,-0.019 -3.195,-0.038 -6.327,1.006v5c0,0 2.667,-1 5,-1c0.204,0 0.421,0 0.642,0c1.014,0.084 2.941,0.333 4.448,3.356c0.245,0.491 0.481,1.036 0.691,1.675l2.219,0.386c0,0 -0.007,-0.024 -0.016,-0.051z" fill="#37474f"></path><path d="M23,22v1h2v-1zM23,25h2v-1h-2z" fill="#455a64"></path><path d="M18,34c-0.552,0 -1,0.448 -1,1c0,0.552 0.448,1 1,1c0.552,0 1,-0.448 1,-1c0,-0.552 -0.448,-1 -1,-1zM24,26c-1.1,0 -2,0.9 -2,2v2h4v-2c0,-1.1 -0.9,-2 -2,-2zM30,34c-0.552,0 -1,0.448 -1,1c0,0.552 0.448,1 1,1c0.552,0 1,-0.448 1,-1c0,-0.552 -0.448,-1 -1,-1z" fill="#c5cae9"></path><path d="M25,3h-2c-0.552,0 -1,0.448 -1,1v14h4v-14c0,-0.552 -0.448,-1 -1,-1zM15.677,11.994c1.657,-0.009 2.461,-0.017 3.185,0.088c0.602,0.089 1.138,-0.377 1.138,-0.984v-4.996c0,-0.622 -0.671,-1.022 -1.214,-0.719c-2.075,1.159 -3.769,2.748 -4.455,4.695c-0.33,0.936 0.353,1.922 1.346,1.916zM18.022,27.999c-0.032,0 -0.081,0.001 -0.146,0.001c-1.037,0 -1.95,-0.134 -2.739,-0.372c0.775,2.113 1.76,4.615 2.349,6.094c0.292,-0.441 0.589,-0.888 0.886,-1.335c1.128,-1.699 2.245,-3.379 3.147,-4.728c-1.158,0.251 -2.356,0.34 -3.482,0.34zM11.203,22.034l0.016,-0.003c0.092,-0.276 0.191,-0.523 0.29,-0.77c0.035,-0.09 0.073,-0.185 0.108,-0.274c1.988,-4.604 5.296,-3.999 5.383,-3.987c1.043,0 2.116,0.186 3,0.398v-2.266c0,-0.506 -0.38,-0.937 -0.883,-0.994c-1.227,-0.137 -2.117,-0.138 -2.117,-0.138c-5,0 -6.268,1.924 -6.51,3c-0.361,1.6 -0.824,3.225 -1.137,4.273c-0.416,1.041 -0.87,2.134 -1.323,3.223c-1.981,4.758 -4.03,9.679 -4.03,12.504c-0.003,0.152 0.034,1.046 1.04,2.068c1.107,1.125 3.378,2.385 7.994,3.168c-0.014,-0.078 -0.034,-0.154 -0.034,-0.236c0.053,-0.051 0.103,-0.107 0.154,-0.16c-6.602,-1.75 -7.153,-4.868 -7.157,-4.897c0.003,-2.369 2.063,-7.315 3.879,-11.678c0.471,-1.132 0.919,-2.212 1.327,-3.231z" fill="#607d8b"></path><path d="M37.51,17c-0.242,-1.076 -1.51,-3 -6.51,-3c0,0 -2.568,0 -5,0.677v3.323c0,0 2.583,-1 5,-1c0.093,-0.013 3.75,-0.75 5.781,5.031l2.219,0.386c0,0 -0.889,-2.751 -1.49,-5.417z" fill="#455a64"></path></g></g></svg>